<mxfile host="app.diagrams.net" modified="2024-03-14T19:58:33.244Z" agent="Mozilla/5.0 (Windows NT 10.0; Win64; x64) AppleWebKit/537.36 (KHTML, like Gecko) Chrome/122.0.0.0 Safari/537.36" etag="0ZD7GCIhST5qJELbpAyW" version="24.0.5" type="device">
  <diagram name="Page-1" id="u7nn-VZ4UJRdpZX8TiuH">
    <mxGraphModel dx="1434" dy="900" grid="1" gridSize="10" guides="1" tooltips="1" connect="1" arrows="1" fold="1" page="1" pageScale="1" pageWidth="827" pageHeight="1169" math="0" shadow="0">
      <root>
        <mxCell id="0" />
        <mxCell id="1" parent="0" />
        <mxCell id="Hjy_fbr94Tfi8_1W6cIt-2" style="edgeStyle=orthogonalEdgeStyle;rounded=0;orthogonalLoop=1;jettySize=auto;html=1;exitX=0.5;exitY=1;exitDx=0;exitDy=0;" edge="1" parent="1" source="Hjy_fbr94Tfi8_1W6cIt-1" target="Hjy_fbr94Tfi8_1W6cIt-3">
          <mxGeometry relative="1" as="geometry">
            <mxPoint x="150" y="190" as="targetPoint" />
          </mxGeometry>
        </mxCell>
        <mxCell id="Hjy_fbr94Tfi8_1W6cIt-5" style="edgeStyle=orthogonalEdgeStyle;rounded=0;orthogonalLoop=1;jettySize=auto;html=1;exitX=0.5;exitY=1;exitDx=0;exitDy=0;entryX=0.5;entryY=0;entryDx=0;entryDy=0;" edge="1" parent="1" source="Hjy_fbr94Tfi8_1W6cIt-1" target="Hjy_fbr94Tfi8_1W6cIt-4">
          <mxGeometry relative="1" as="geometry" />
        </mxCell>
        <mxCell id="Hjy_fbr94Tfi8_1W6cIt-8" style="edgeStyle=orthogonalEdgeStyle;rounded=0;orthogonalLoop=1;jettySize=auto;html=1;exitX=0.5;exitY=1;exitDx=0;exitDy=0;entryX=0.5;entryY=0;entryDx=0;entryDy=0;" edge="1" parent="1" source="Hjy_fbr94Tfi8_1W6cIt-1" target="Hjy_fbr94Tfi8_1W6cIt-7">
          <mxGeometry relative="1" as="geometry">
            <Array as="points">
              <mxPoint x="414" y="130" />
              <mxPoint x="603" y="130" />
            </Array>
          </mxGeometry>
        </mxCell>
        <mxCell id="Hjy_fbr94Tfi8_1W6cIt-1" value="Programme" style="rounded=0;whiteSpace=wrap;html=1;" vertex="1" parent="1">
          <mxGeometry x="354" y="20" width="120" height="60" as="geometry" />
        </mxCell>
        <mxCell id="Hjy_fbr94Tfi8_1W6cIt-3" value="Lancement du jeu&lt;div&gt;Cette fonction initialise le joueur, les tamagotchis et gère le&lt;div&gt;lancement de la clock&lt;/div&gt;&lt;/div&gt;" style="rounded=0;whiteSpace=wrap;html=1;" vertex="1" parent="1">
          <mxGeometry x="100" y="180" width="190" height="60" as="geometry" />
        </mxCell>
        <mxCell id="Hjy_fbr94Tfi8_1W6cIt-4" value="Clock(Tamagochi)&lt;div&gt;Gestion du cycle jour/nuit&lt;/div&gt;&lt;div&gt;Timer de 3 min&lt;/div&gt;&lt;div&gt;Plus vérif Temps de sommeil&lt;/div&gt;" style="rounded=0;whiteSpace=wrap;html=1;" vertex="1" parent="1">
          <mxGeometry x="331" y="190" width="166" height="80" as="geometry" />
        </mxCell>
        <mxCell id="Hjy_fbr94Tfi8_1W6cIt-9" style="edgeStyle=orthogonalEdgeStyle;rounded=0;orthogonalLoop=1;jettySize=auto;html=1;exitX=0.5;exitY=1;exitDx=0;exitDy=0;" edge="1" parent="1" source="Hjy_fbr94Tfi8_1W6cIt-7" target="Hjy_fbr94Tfi8_1W6cIt-10">
          <mxGeometry relative="1" as="geometry">
            <mxPoint x="540" y="390" as="targetPoint" />
          </mxGeometry>
        </mxCell>
        <mxCell id="Hjy_fbr94Tfi8_1W6cIt-12" style="edgeStyle=orthogonalEdgeStyle;rounded=0;orthogonalLoop=1;jettySize=auto;html=1;exitX=0.5;exitY=1;exitDx=0;exitDy=0;" edge="1" parent="1" source="Hjy_fbr94Tfi8_1W6cIt-7" target="Hjy_fbr94Tfi8_1W6cIt-11">
          <mxGeometry relative="1" as="geometry" />
        </mxCell>
        <mxCell id="Hjy_fbr94Tfi8_1W6cIt-7" value="Action du joueur(Clock)&lt;div&gt;Cette fonction gère toutes les input du joueur et le renvoie vers d&#39;autre fonction et elle vérifie si le tamagotchi dort&lt;/div&gt;" style="rounded=0;whiteSpace=wrap;html=1;" vertex="1" parent="1">
          <mxGeometry x="520" y="190" width="166" height="80" as="geometry" />
        </mxCell>
        <mxCell id="Hjy_fbr94Tfi8_1W6cIt-10" value="Manger&lt;div&gt;Cette fonction donne à manger au Tamagotchi&lt;/div&gt;" style="rounded=0;whiteSpace=wrap;html=1;" vertex="1" parent="1">
          <mxGeometry x="440" y="440" width="120" height="60" as="geometry" />
        </mxCell>
        <mxCell id="Hjy_fbr94Tfi8_1W6cIt-11" value="Jouer&lt;div&gt;Cette fonction joue avec le tamagotchi&lt;/div&gt;" style="rounded=0;whiteSpace=wrap;html=1;" vertex="1" parent="1">
          <mxGeometry x="610" y="440" width="120" height="60" as="geometry" />
        </mxCell>
      </root>
    </mxGraphModel>
  </diagram>
</mxfile>
